<svg width="50" height="50" viewBox="0 0 50 50" fill="none" xmlns="http://www.w3.org/2000/svg">
<g clip-path="url(#clip0_62_2)">
<path d="M32.5301 34.9398H17.4698C13.311 34.9398 9.9397 38.3111 9.9397 42.4699C9.9397 46.6286 13.311 50 17.4698 50H32.5301C36.6888 50 40.0602 46.6286 40.0602 42.4699C40.0602 38.3111 36.6888 34.9398 32.5301 34.9398Z" fill="#1AD1A5"/>
<path d="M25.0001 31.9277C33.6503 31.9277 40.6627 24.9153 40.6627 16.2651C40.6627 7.61481 33.6503 0.602402 25.0001 0.602402C16.3498 0.602402 9.3374 7.61481 9.3374 16.2651C9.3374 24.9153 16.3498 31.9277 25.0001 31.9277Z" fill="black" fill-opacity="0.3"/>
<path d="M24.9999 31.3253C33.3175 31.3253 40.0602 24.5826 40.0602 16.2651C40.0602 7.94752 33.3175 1.20482 24.9999 1.20482C16.6824 1.20482 9.9397 7.94752 9.9397 16.2651C9.9397 24.5826 16.6824 31.3253 24.9999 31.3253Z" fill="white"/>
<path d="M24.9999 23.012C28.7262 23.012 31.7469 19.9913 31.7469 16.2651C31.7469 12.5388 28.7262 9.51807 24.9999 9.51807C21.2737 9.51807 18.2529 12.5388 18.2529 16.2651C18.2529 19.9913 21.2737 23.012 24.9999 23.012Z" fill="#FF9903"/>
</g>
<defs>
<clipPath id="clip0_62_2">
<rect width="50" height="50" fill="white"/>
</clipPath>
</defs>
</svg>
