<svg width="100" height="100" viewBox="0 0 100 100" fill="none" xmlns="http://www.w3.org/2000/svg">
<g clip-path="url(#clip0_62_2)">
<path d="M65.0601 69.8795H34.9396C26.6221 69.8795 19.8794 76.6222 19.8794 84.9398C19.8794 93.2573 26.6221 100 34.9396 100H65.0601C73.3777 100 80.1204 93.2573 80.1204 84.9398C80.1204 76.6222 73.3777 69.8795 65.0601 69.8795Z" fill="#1AD1A5"/>
<path d="M50.0001 63.8554C67.3006 63.8554 81.3254 49.8306 81.3254 32.5301C81.3254 15.2296 67.3006 1.20482 50.0001 1.20482C32.6996 1.20482 18.6748 15.2296 18.6748 32.5301C18.6748 49.8306 32.6996 63.8554 50.0001 63.8554Z" fill="black" fill-opacity="0.3"/>
<path d="M49.9999 62.6506C66.635 62.6506 80.1204 49.1652 80.1204 32.5301C80.1204 15.895 66.635 2.40964 49.9999 2.40964C33.3648 2.40964 19.8794 15.895 19.8794 32.5301C19.8794 49.1652 33.3648 62.6506 49.9999 62.6506Z" fill="white"/>
<path d="M50.0001 46.0241C57.4526 46.0241 63.4941 39.9826 63.4941 32.5301C63.4941 25.0776 57.4526 19.0361 50.0001 19.0361C42.5476 19.0361 36.5061 25.0776 36.5061 32.5301C36.5061 39.9826 42.5476 46.0241 50.0001 46.0241Z" fill="#FF9903"/>
</g>
<defs>
<clipPath id="clip0_62_2">
<rect width="100" height="100" fill="white"/>
</clipPath>
</defs>
</svg>
